<svg xmlns="http://www.w3.org/2000/svg" viewBox="0 0 1200 850">
<defs>
  <linearGradient id="bg" x1="0" x2="1" y1="0" y2="1">
    <stop offset="0%" stop-color="#0b1730"/>
    <stop offset="100%" stop-color="#050b16"/>
  </linearGradient>
  <linearGradient id="a" x1="0" x2="1">
    <stop offset="0%" stop-color="#67d5ff"/>
    <stop offset="100%" stop-color="#8b7bff"/>
  </linearGradient>
</defs>
<rect width="1200" height="850" rx="34" fill="url(#bg)"/>
<circle cx="930" cy="160" r="180" fill="#67d5ff" opacity=".10"/>
<circle cx="245" cy="670" r="230" fill="#8b7bff" opacity=".08"/>
<rect x="88" y="120" width="450" height="54" rx="18" fill="url(#a)" opacity=".9"/>
<rect x="88" y="200" width="370" height="22" rx="11" fill="#9db3d9" opacity=".55"/>
<rect x="88" y="240" width="320" height="22" rx="11" fill="#9db3d9" opacity=".35"/>
<rect x="88" y="350" width="300" height="260" rx="30" fill="#0f1c35" stroke="#29405e" stroke-width="2"/>
<path d="M170 390h140v28H170zM170 436h190v20H170zM170 475h160v20H170zM170 514h120v20H170z" fill="#dbe7ff" opacity=".8"/>
<rect x="520" y="160" width="560" height="460" rx="34" fill="#0f1c35" stroke="#29405e" stroke-width="2"/>
<rect x="570" y="210" width="210" height="22" rx="11" fill="#67d5ff" opacity=".8"/>
<rect x="570" y="255" width="430" height="18" rx="9" fill="#9db3d9" opacity=".45"/>
<rect x="570" y="290" width="390" height="18" rx="9" fill="#9db3d9" opacity=".35"/>
<rect x="570" y="365" width="140" height="140" rx="26" fill="#142849"/>
<rect x="730" y="365" width="140" height="140" rx="26" fill="#142849"/>
<rect x="890" y="365" width="140" height="140" rx="26" fill="#142849"/>
<circle cx="640" cy="435" r="36" fill="#67d5ff" opacity=".9"/>
<path d="M625 435l11 11 22-25" fill="none" stroke="#0a1220" stroke-width="10" stroke-linecap="round" stroke-linejoin="round"/>
<circle cx="800" cy="435" r="36" fill="#8b7bff" opacity=".9"/>
<path d="M785 435l11 11 22-25" fill="none" stroke="#0a1220" stroke-width="10" stroke-linecap="round" stroke-linejoin="round"/>
<circle cx="960" cy="435" r="36" fill="#3ef0c2" opacity=".9"/>
<path d="M945 435l11 11 22-25" fill="none" stroke="#0a1220" stroke-width="10" stroke-linecap="round" stroke-linejoin="round"/>
<rect x="570" y="545" width="450" height="18" rx="9" fill="#dbe7ff" opacity=".18"/>
<rect x="570" y="575" width="320" height="18" rx="9" fill="#dbe7ff" opacity=".12"/>
<rect x="88" y="650" width="1020" height="110" rx="28" fill="#0f1c35" stroke="#29405e" stroke-width="2"/>
<text x="122" y="715" fill="#dbe7ff" font-family="Arial, sans-serif" font-size="30" font-weight="700">Fast quotes · Clear cover · Sri Lankan support · LKR pricing</text>
</svg>